<svg xmlns="http://www.w3.org/2000/svg" viewBox="0 0 512 512">
  <rect width="512" height="512" rx="80" fill="#121212"/>
  <g transform="translate(106, 106) scale(12.5)">
    <path d="M12 0C5.4 0 0 5.4 0 12C0 18.6 5.4 24 12 24C18.6 24 24 18.6 24 12C24 5.4 18.6 0 12 0ZM17.6 17.3C17.4 17.7 16.9 17.8 16.5 17.6C13.7 15.9 10.2 15.5 6 16.5C5.5 16.6 5.1 16.3 5 15.8C4.9 15.3 5.2 14.9 5.7 14.8C10.3 13.8 14.2 14.2 17.3 16.1C17.7 16.3 17.8 16.9 17.6 17.3ZM19.1 14C18.8 14.5 18.2 14.6 17.7 14.3C14.5 12.3 9.6 11.8 5.8 12.9C5.2 13.1 4.6 12.8 4.4 12.2C4.2 11.6 4.5 11 5.1 10.8C9.5 9.5 15.1 10.1 18.8 12.4C19.3 12.7 19.4 13.4 19.1 14ZM19.3 10.6C15.4 8.2 8.9 8 5.2 9.1C4.5 9.3 3.7 8.9 3.5 8.2C3.3 7.5 3.7 6.7 4.4 6.5C8.7 5.2 16 5.5 20.4 8.2C21.1 8.6 21.3 9.5 20.9 10.1C20.5 10.8 19.7 11 19.3 10.6Z" fill="#1DB954"/>
  </g>
</svg>
